<svg width="166" height="166" viewBox="0 0 166 166" fill="none" xmlns="http://www.w3.org/2000/svg">
<rect width="166" height="166" rx="18.7343" fill="#388377"/>
<path fill-rule="evenodd" clip-rule="evenodd" d="M82.1909 138.279C72.1892 138.279 63.0967 136.005 54.9135 131.459C46.8602 126.913 40.4955 120.483 35.8194 112.17C31.2731 103.727 29 93.9853 29 82.9444C29 72.0335 31.3381 62.4215 36.0142 54.1083C40.8202 45.6653 47.3148 39.2357 55.498 34.8193C63.6812 30.2731 72.8386 28 82.9702 28C93.1018 28 102.259 30.2731 110.442 34.8193C118.626 39.2357 125.055 45.6004 129.731 53.9135C134.537 62.2266 136.94 71.9036 136.94 82.9444C136.94 90.687 135.727 97.7907 133.299 104.256L112.9 83.8559C112.232 83.1887 111.151 83.1887 110.483 83.8559C109.816 84.5231 109.816 85.6049 110.483 86.2721L131.879 107.667C131.172 109.207 130.391 110.708 129.537 112.17C126.816 116.875 123.535 120.977 119.691 124.476L106.749 111.534C106.082 110.866 105 110.866 104.333 111.534C103.666 112.201 103.666 113.283 104.333 113.95L117.077 126.694C114.839 128.463 112.432 130.051 109.858 131.459C107.075 132.981 104.19 134.248 101.203 135.261L77.3933 110.198C76.7434 109.514 75.6621 109.486 74.978 110.136C74.2939 110.786 74.2661 111.868 74.916 112.552L97.5362 136.362C92.6766 137.64 87.5615 138.279 82.1909 138.279ZM79.124 93.6531L71.9282 112.742L67.131 107.465V81.6602L50.8206 64.8701C50.5878 64.5993 50.3098 64.3168 50.0223 64.0245C48.6756 62.6559 47.1198 61.0746 49.0173 59.4934C51.3199 57.5745 56.2136 56.1356 60.0513 59.0139L74.8061 73.5049L105.624 74.8441L110.901 80.121L87.2788 85.4979L102.15 100.369L111.744 98.93L116.062 103.247L98.7038 111.403L79.124 93.6531Z" fill="#ECECEC"/>
</svg>
