<svg xmlns="http://www.w3.org/2000/svg" width="512" height="512" viewBox="0 0 512 512">
  <circle cx="256" cy="256" r="256" fill="#3d8b7a"/>
  <g transform="translate(126, 106) scale(1.1)" fill="white">
    <path d="M220.5 112.3L168 86.2V48.8c0-17.8-14.3-32.2-32-32.2s-32 14.4-32 32.2v37.4L51.5 112.3c-3.1 1.6-5.1 4.9-5.1 8.4v22.7c0 4.2 3.5 7.3 7.6 6.5L112 137.4v49.2l-20.4 15.3c-2.3 1.7-3.6 4.4-3.6 7.2v17.4c0 3.8 3.2 6.7 7 6.3l41-4.6 41 4.6c3.8 0.4 7-2.5 7-6.3v-17.4c0-2.8-1.3-5.5-3.6-7.2L160 186.6v-49.2l58 12.5c4.1 0.8 7.6-2.3 7.6-6.5v-22.7c0-3.5-2-6.8-5.1-8.4z"/>
  </g>
</svg>
